<?xml version="1.0" encoding="UTF-8"?>
<svg id="_图层_1" data-name="图层 1" xmlns="http://www.w3.org/2000/svg" viewBox="0 0 2490.57 2855.59">
  <defs>
    <style>
      .cls-1 {
        fill: #40a9e1;
      }

      .cls-2 {
        fill: #5e4e9e;
      }

      .cls-3 {
        fill: #494197;
      }

      .cls-4 {
        fill: #231815;
      }

      .cls-5 {
        fill: #30b6ac;
      }

      .cls-6 {
        fill: #483792;
      }

      .cls-7 {
        fill: #3171b9;
      }

      .cls-8 {
        fill: #189e89;
      }
    </style>
  </defs>
  <g>
    <path class="cls-3" d="M648.44,1194.56l86.1,60.64,484.92,298.93c6.04,3.61,10.49,1.04,15.94-1.58,7.7,227.35,10.34,455.54,3.07,681.94l.22,612.66-25.86,5.09c-8.62-1.4-17.3-2.6-25.77-4.89-188.3-109.08-368.71-234.33-551.52-353.09l-3.19-512.78c28.96,29.15,53.88,62.92,93.56,78.95,268.56,108.49,282.71-451.55,36.74-494.7-57.57-10.1-125.65,18.03-133.66-63.07-5.98-60.55-6.04-197.72,0-258.21,1.97-19.75,7.35-34.82,19.45-49.89Z"/>
    <path class="cls-6" d="M1593.37,1323.56c34.41,99.3-46.54,311.8,65.53,371.46,100.82,53.67,185.59-67.37,260.14-113.46,28.91,58.97,26.41,141.86,4.87,203.15-65.16,185.35-270.59,61.55-312.21,281.2-18.43,97.25-21.73,219.39,73.05,274.07,15.55,8.97,46.14,12.6,49.92,30.88l-2.62,197.56c-96.41,62.48-380.65,275.21-475.99,286.92-8.58,1.05-33.56-1.54-43.24-3.12,0,0,25.96-5.38,25.86-5.09s-.22-612.66-.22-612.66c7.28-226.4,4.63-454.59-3.07-681.94,12.44-5.99,42-31.67,57.07-41.29,91.66-58.57,185.65-124.64,278.59-179.33,7.73-4.55,13.51-7.22,22.32-8.35Z"/>
    <path class="cls-2" d="M648.44,1194.56c50.89-63.33,207.39-81.44,242.55-178.31,27.46-75.64-7.87-115.3-7.19-178.24.86-79.68,144.27-86.5,189.8-31.52,35.55,42.93,25.39,85.91,42.83,128.1,27.64,66.84,328.04,246.42,402.48,303.81,28.24,21.77,62.6,50.92,74.47,85.17-8.82,1.12-14.59,3.8-22.32,8.35-92.94,54.7-186.93,120.76-278.59,179.33-15.07,9.63-44.63,35.31-57.07,41.29-5.45,2.62-9.89,5.2-15.94,1.58l-484.92-298.93-86.1-60.64Z"/>
  </g>
  <path class="cls-1" d="M6.65,762.4c17.05-56.35,81.69-88.84,128.6-118.9,110.4-70.74,226.39-133.88,338.06-202.79,205.64-126.91,408.48-261.05,617.24-382.71,97.93-57.07,136.32-81.1,248.7-29.95,148.15,67.42,324.75,192.74,466.98,279.62l-309.37,201.8c-50.03,36.39-85.34,88.73-66.87,153.47,20.38,71.4,137.87,99.58,66.54,188.06-45.66,56.64-173.32,92.15-233.63,43.54-45.8-36.92-39.34-92.69-63.61-139.57-86.36-166.79-455.14-117.83-444.53,76.88,2.76,50.7,29.49,86.09,10.76,139.54-16.29,46.5-49.3,43.56-85.98,62.38-46.89,24.05-96.08,52.96-127.86,96.29-2.05-1.19-4.49-1.91-6.45-3.23-170.31-114.21-342.12-226.37-512.49-340.54l-26.1-23.89Z"/>
  <g>
    <path class="cls-8" d="M1844.93,2494.25c-10.7-70.28,18.4-137.15-25.82-201.55-4.63-6.74-30.25-32.96-37.07-37.12-29.81-18.18-68.57-6.78-69.57-53.22-.55-25.54,1.55-99.25,7.53-121.68,12.86-48.21,73.65-43.46,113.71-57.22,124.88-42.88,203.14-151.16,223.27-279.81,25.14-160.65-27.31-403.42-229.69-242.62-16.69,13.26-88.77,93.95-108.37,79.18-3.92-2.95-5.87-25.97-6.37-32.37-6.95-88,24.47-202.78-12.75-285.57l777.24-503.11s-.52-.65,3.02,4.73c2.16,7.49,7.21,27.27,7.68,29.22,6.38,424.4,0,1214.04,0,1214.04.32,44.01-22.54,86.51-68.02,116.2"/>
    <path class="cls-5" d="M1915.88,375.4c152.29,111.88,349.87,194.88,499.64,305.01,32.14,23.63,50.13,48.45,61.52,78.77l-777.24,503.11c-27.03-60.13-197.98-163.62-258.04-217.65-3.09-2.78-28.61-24.69-25.74-27.43,1.06-1.02,22.99-3.02,29.01-4.85,120.36-36.63,268.18-176.16,173.6-305.83-45.28-62.08-100.9-60.14-8.22-128.65,96.88-71.61,209.34-128.98,305.48-202.47Z"/>
  </g>
  <path class="cls-4" d="M1806.2,307.65c36.6,22.35,74.49,42.7,109.65,67.73-96.14,73.49-208.6,130.86-305.48,202.47-92.68,68.5-37.06,66.56,8.22,128.65,94.58,129.67-53.24,269.21-173.6,305.83-6.02,1.83-27.95,3.84-29.01,4.85-2.86,2.74,22.66,24.65,25.74,27.43,60.06,54.03,231.01,157.52,258.04,217.65,37.22,82.79,5.8,197.57,12.75,285.57.51,6.4,2.46,29.42,6.37,32.37,19.6,14.77,91.68-65.92,108.37-79.18,202.38-160.8,254.83,81.97,229.69,242.62-20.13,128.65-98.38,236.93-223.27,279.81-40.06,13.76-100.86,9-113.71,57.22-5.98,22.43-8.08,96.14-7.53,121.68,1,46.43,39.76,35.04,69.57,53.22,6.82,4.16,32.44,30.38,37.07,37.12,44.22,64.41,15.12,131.27,25.82,201.55-27.91,29.68-74.78,49.49-112.88,74.18l2.62-197.56c-3.77-18.28-34.37-21.91-49.92-30.88-94.77-54.68-91.47-176.82-73.05-274.07,41.62-219.65,243.78-96.11,312.21-281.2,21.54-61.29,24.04-144.18-4.87-203.15-74.55,46.09-159.32,167.13-260.14,113.46-112.07-59.66-31.12-272.16-65.53-371.46-11.87-34.25-46.23-63.4-74.47-85.17-74.44-57.39-374.83-236.97-402.48-303.81-17.45-42.18-7.28-85.16-42.83-128.1-45.53-54.98-188.94-48.16-189.8,31.52-.68,62.94,34.64,102.6,7.19,178.24-35.17,96.87-191.66,114.99-242.55,178.31-12.11,15.06-17.48,30.14-19.45,49.89-6.04,60.49-5.98,197.66,0,258.21,8.01,81.1,76.09,52.97,133.66,63.07,253.81,42.82,246.39,608.36-36.74,494.7-39.68-16.03-64.6-49.79-93.56-78.95l3.19,512.78c-69.97-39.88-136.79-79.9-130.49-81.67,0,0-8.08-2.71,2.63-31.56.35-9.48.1-20.14,1.06-47.1,2.13-201.56-33.55-314.78,12.24-423.24,7.44-17.63,20.02-43.94,45.28-55.84,42.01-19.81,88.83-4.86,95.32-2.38,64.18,24.5,81.63,89.98,111.59,83.1,7.83-1.8,24.38-27.58,24.38-27.58,0,0,10.54-17.36,11.81-31.89,2.55-29.16,2.81-54.84.06-69.08-5.34-27.69-11.78-62.04-37.41-85.03-27.35-24.53-48.6-12.03-134.22-36.67-36-10.36-54.33-15.79-70.21-27.82-17.68-13.4-37.55-32.14-46.43-52.41-7.42-16.92-9.1-28.72-11.05-56.55-3.09-44.16-53.13-237.5,14.57-385.2,9.28-20.24,16.86-31.33,20.57-36.48,46.45-64.55,127.6-89.69,134.31-93.06,10.69-5.36,18.79-8.52,29.35-12.67,12.33-4.85,27.88-9.41,39.28-20.69,6.91-6.83,12.79-15.98,17.35-29.02,18.73-53.46-8-88.84-10.76-139.54-10.61-194.71,358.17-243.67,444.53-76.88,24.27,46.88,17.81,102.65,63.61,139.57,60.32,48.62,187.98,13.1,233.63-43.54,71.33-88.47-46.16-116.65-66.54-188.06-18.48-64.74,16.83-117.08,66.87-153.47l309.37-201.8Z"/>
  <path class="cls-7" d="M506.18,2415.18c.13.03-431.26-286.85-431.54-287.02C0,2083.89,0,2073.46,0,2009.29L.11,796.3c2.64-9.79,3.87-24.77,6.58-33.73l26.1,23.89c170.36,114.17,342.18,226.33,512.49,340.54-23.51,30.33-35.77,76.44-38.64,114.55-5.16,68.73-2.82,162.4-.18,232.26,2.6,68.91-.03,140.14,61.17,183.83,74.88,53.47,195.96-5.33,233.88,114.53,13.92,43.98,16.73,71.51,5.41,115.94-.46,3.09-7.8,18.31-9.32,20.03-6.53,7.4-10.81,31.78-33.64,27.65-31.85-5.77-67.53-83.13-133.27-89.54-99.56-9.72-121.79,69.45-124.23,149.78-4.1,134.91,8.08,274.65.1,409.69"/>
</svg>