<?xml version="1.0" encoding="UTF-8"?>
<svg id="_图层_1" data-name="图层_1" xmlns="http://www.w3.org/2000/svg" version="1.1" viewBox="0 0 2919.69 2919.69">
  <!-- Generator: Adobe Illustrator 29.4.0, SVG Export Plug-In . SVG Version: 2.1.0 Build 152)  -->
  <defs>
    <style>
      .st0 {
        fill: #40a9e1;
      }

      .st1 {
        fill: #5e4e9e;
      }

      .st2 {
        fill: #494197;
      }

      .st3 {
        fill: #30b6ac;
      }

      .st4 {
        fill: #483792;
      }

      .st5 {
        fill: #3171b9;
      }

      .st6 {
        fill: #131c27;
      }

      .st7 {
        fill: #189e89;
      }
    </style>
  </defs>
  <g>
    <path class="st2" d="M1019.04,1308.95l63.44,44.68,357.3,220.26c4.45,2.66,7.73.76,11.74-1.17,5.67,167.52,7.62,335.66,2.26,502.47l.16,451.43-19.06,3.75c-6.35-1.03-12.75-1.91-18.98-3.6-138.74-80.37-271.67-172.66-406.37-260.17l-2.35-377.83c21.34,21.48,39.7,46.36,68.94,58.17,197.88,79.94,208.31-332.72,27.07-364.51-42.42-7.44-92.58,13.29-98.49-46.47-4.41-44.61-4.45-145.68,0-190.26,1.45-14.55,5.41-25.66,14.33-36.76Z"/>
    <path class="st4" d="M1715.3,1404c25.35,73.17-34.29,229.74,48.29,273.7,74.28,39.55,136.75-49.64,191.68-83.6,21.3,43.45,19.46,104.53,3.59,149.69-48.01,136.57-199.38,45.35-230.04,207.2-13.58,71.66-16.01,161.66,53.82,201.95,11.46,6.61,34,9.28,36.78,22.75l-1.93,145.57c-71.04,46.04-280.48,202.78-350.72,211.41-6.32.78-24.72-1.14-31.86-2.3l19.06-3.75-.16-451.43c5.36-166.82,3.41-334.96-2.26-502.47,9.17-4.41,30.95-23.33,42.05-30.43,67.54-43.16,136.79-91.83,205.27-132.14,5.69-3.35,9.95-5.32,16.45-6.15Z"/>
    <path class="st1" d="M1019.04,1308.95c37.5-46.66,152.81-60.01,178.72-131.39,20.23-55.73-5.8-84.96-5.3-131.33.63-58.71,106.3-63.74,139.85-23.22,26.2,31.63,18.7,63.3,31.56,94.38,20.37,49.25,241.71,181.57,296.56,223.85,20.81,16.04,46.12,37.52,54.87,62.76-6.5.83-10.75,2.8-16.45,6.15-68.48,40.3-137.74,88.98-205.27,132.14-11.1,7.09-32.88,26.02-42.05,30.43-4.01,1.93-7.29,3.83-11.74,1.17l-357.3-220.26-63.44-44.68Z"/>
  </g>
  <path class="st5" d="M546.15,990.52l19.23,17.6c125.53,84.12,252.13,166.77,377.62,250.92-17.33,22.35-26.36,56.32-28.47,84.41-3.8,50.65-2.07,119.66-.14,171.14,1.91,50.78,2.09,100.49,45.07,135.45,54.66,44.47,144.39-3.93,172.33,84.39,10.25,32.41,9.65,66.94,1.31,99.68-.44.31-2.61-.63-4.19.5-5.92,4.23-7.97,23.42-24.79,20.37-23.47-4.25-49.82-60.64-98.19-65.98-74.11-8.18-87.91,50.14-91.53,110.36-5.96,99.02,5.96,202.37.08,301.87l4.78-.03c.15-2.74-.25-5.56-.01-8.28l2.38,19.01c-101.53-66.49-232.28-141.95-325.39-215.22-31.21-24.56-48.22-47.36-55-87.58l.08-893.77c1.95-7.22,2.85-18.25,4.85-24.85Z"/>
  <path class="st0" d="M546.15,990.52c12.57-41.52,60.19-65.46,94.75-87.61,81.35-52.13,166.81-98.65,249.09-149.42,151.52-93.51,300.98-192.35,454.8-281.99,72.16-42.05,100.44-59.76,183.25-22.07,109.16,49.68,239.28,142.02,344.09,206.03l-227.95,148.69c-36.87,26.81-62.88,65.38-49.27,113.08,15.02,52.61,101.58,73.38,49.03,138.57-33.64,41.73-127.71,67.9-172.15,32.08-33.75-27.2-28.99-68.29-46.87-102.84-63.63-122.9-335.36-86.82-327.54,56.65,2.04,37.36,21.73,63.43,7.93,102.82-12,34.27-36.33,32.1-63.35,45.96-34.55,17.72-70.79,39.02-94.21,70.95-1.51-.87-3.31-1.41-4.75-2.38-125.49-84.15-252.09-166.8-377.62-250.92l-19.23-17.6Z"/>
  <g>
    <path class="st7" d="M2366.4,988.15c.09.28,3.55,1.23,4.22,4.02,4.7,312.71,5.14,627.2-.21,939.82-8.76,24.23-26.23,45.34-46.25,61.34-124.62,99.64-290.76,176.8-419.65,273.9l-3.87-.62c-7.88-51.78,13.56-101.05-19.02-148.51-3.41-4.97-22.29-24.29-27.31-27.35-21.96-13.39-50.52-5-51.26-39.21-.41-18.82,1.14-73.13,5.55-89.66,9.47-35.53,54.27-32.02,83.79-42.16,92.02-31.6,149.68-111.38,164.51-206.17,18.52-118.37-20.12-297.25-169.24-178.77-12.3,9.77-65.41,69.22-79.85,58.34-2.89-2.17-4.32-19.14-4.7-23.85-5.12-64.84,18.03-149.41-9.39-210.41l572.69-370.7Z"/>
    <path class="st3" d="M1952.93,705.37c112.21,82.44,257.8,143.59,368.15,224.74,23.68,17.41,36.02,29.84,45.33,58.04l-572.69,370.7c-19.92-44.31-145.88-120.56-190.13-160.37-2.27-2.05-21.08-18.19-18.97-20.21.78-.75,16.94-2.23,21.38-3.58,88.68-26.99,197.6-129.8,127.91-225.35-33.37-45.75-74.35-44.32-6.06-94.79,71.38-52.76,154.25-95.03,225.08-149.18Z"/>
  </g>
  <path class="st6" d="M1872.13,655.46c26.97,16.47,54.89,31.46,80.79,49.9-70.84,54.15-153.7,96.42-225.08,149.18-68.29,50.48-27.31,49.05,6.06,94.79,69.69,95.54-39.23,198.36-127.91,225.35-4.44,1.35-20.59,2.83-21.38,3.58-2.11,2.02,16.7,18.17,18.97,20.21,44.26,39.81,170.21,116.07,190.13,160.37,27.42,61,4.27,145.58,9.39,210.41.37,4.72,1.81,21.68,4.7,23.85,14.44,10.88,67.55-48.57,79.85-58.34,149.12-118.48,187.76,60.4,169.24,178.77-14.83,94.79-72.49,174.57-164.51,206.17-29.52,10.14-74.31,6.63-83.79,42.16-4.41,16.53-5.95,70.84-5.55,89.66.74,34.21,29.3,25.82,51.26,39.21,5.02,3.06,23.9,22.38,27.31,27.35,32.58,47.46,11.14,96.73,19.02,148.51-20.56,21.87-55.1,36.46-83.17,54.66l1.93-145.57c-2.78-13.47-25.33-16.14-36.78-22.75-69.83-40.29-67.4-130.29-53.82-201.95,30.66-161.85,182.03-70.62,230.04-207.2,15.87-45.16,17.72-106.24-3.59-149.69-54.93,33.96-117.39,123.15-191.68,83.6-82.58-43.96-22.93-200.54-48.29-273.7-8.75-25.24-34.06-46.72-54.87-62.76-54.85-42.29-276.19-174.61-296.56-223.85-12.85-31.08-5.36-62.75-31.56-94.38-33.55-40.51-139.22-35.49-139.85,23.22-.5,46.38,25.53,75.6,5.3,131.33-25.91,71.38-141.22,84.73-178.72,131.39-8.92,11.1-12.88,22.21-14.33,36.76-4.45,44.57-4.41,145.64,0,190.26,5.9,59.76,56.07,39.03,98.49,46.47,181.24,31.79,170.81,444.45-27.07,364.51-29.24-11.81-47.6-36.69-68.94-58.17l2.35,377.83c-51.33-5.37-91.46-56.97-95.7-59.73,0,0-1.44-13.85,1.49-23.71.26-6.99.65-19.34.78-34.71,1.26-148.02-24.72-231.94,9.02-311.86,5.48-12.99,14.64-30.8,33.36-41.15,29.95-16.56,65.46-3.58,70.24-1.76,47.29,18.05,60.14,66.3,82.22,61.23,5.77-1.32,12.29-6.32,17.97-20.32,2.77-5.44,6.27-13.42,8.7-23.5,5.37-22.27,2.07-40.41.05-50.9-3.94-20.4-8.68-45.72-27.56-62.65-20.15-18.07-35.81-8.87-98.9-27.02-26.53-7.63-40.03-11.63-51.73-20.5-24.11-18.27-33.43-45.64-41.45-80.65-7.29-31.79-40.04-174.63,9.84-283.47,6.83-14.91,12.42-23.08,15.15-26.88,34.22-47.57,93.68-66.92,98.96-68.57,18.56-5.81,34.98-9.16,50.56-24.58,5.09-5.04,9.42-11.78,12.79-21.38,13.8-39.39-5.89-65.46-7.93-102.82-7.82-143.47,263.91-179.54,327.54-56.65,17.88,34.54,13.12,75.64,46.87,102.84,44.44,35.82,138.51,9.65,172.15-32.08,52.56-65.19-34.01-85.95-49.03-138.57-13.61-47.7,12.4-86.27,49.27-113.08l227.95-148.69Z"/>
</svg>